<svg width="49" height="49" viewBox="0 0 49 49" fill="none" xmlns="http://www.w3.org/2000/svg">
<g clip-path="url(#clip0_14_108)">
<path d="M49 24.4C49 11 38 0 24.4 0C11 0 0 11 0 24.4C0 36.6 9 46.8 20.6 48.6V31.4H14.4V24.4H20.6V19.2C20.6 13 24.2 9.6 29.8 9.6C32.4 9.6 35.2 10 35.2 10V16H32.2C29.2 16 28.2 17.8 28.2 19.8V24.4H35L34 31.6H28.2V48.8C40 46.8 49 36.8 49 24.4Z" fill="url(#paint0_linear_14_108)"/>
<path d="M34 31.6L35 24.6H28.2V20C28.2 18 29.2 16.2 32.2 16.2H35.2V9.99998C35.2 9.99998 32.4 9.59998 29.8 9.59998C24.2 9.59998 20.6 13 20.6 19.2V24.6H14.4V31.6H20.6V48.8C21.8 49 23.2 49 24.4 49C25.8 49 27 48.8 28.2 48.8V31.6H34Z" fill="#003366"/>
</g>
<defs>
<linearGradient id="paint0_linear_14_108" x1="0" y1="24.3512" x2="49" y2="24.3512" gradientUnits="userSpaceOnUse">
<stop stop-color="#CC9933"/>
<stop offset="0.439" stop-color="#FFCC66"/>
<stop offset="0.6777" stop-color="#CC9933"/>
<stop offset="0.7611" stop-color="#C69333"/>
<stop offset="0.8676" stop-color="#B78433"/>
<stop offset="0.9863" stop-color="#9D6A33"/>
<stop offset="1" stop-color="#996633"/>
</linearGradient>
<clipPath id="clip0_14_108">
<rect width="49" height="49" fill="white"/>
</clipPath>
</defs>
</svg>
