<svg width="49" height="49" viewBox="0 0 49 49" fill="none" xmlns="http://www.w3.org/2000/svg">
<g clip-path="url(#clip0_14_112)">
<path d="M24.4 48.8C37.8757 48.8 48.8 37.8757 48.8 24.4C48.8 10.9243 37.8757 0 24.4 0C10.9243 0 0 10.9243 0 24.4C0 37.8757 10.9243 48.8 24.4 48.8Z" fill="url(#paint0_linear_14_112)"/>
<path d="M14.2 20.6H19V36H14.2V20.6ZM16.6 13C18.2 13 19.4 14.2 19.4 15.8C19.4 17.4 18.2 18.6 16.6 18.6C15 18.6 13.8 17.4 13.8 15.8C13.8 14.4 15 13 16.6 13Z" fill="#003366"/>
<path d="M22 20.4H26.6V22.4C27.2 21.2 28.8 20 31 20C35.8 20 36.6 23.2 36.6 27.2V35.6H32V28.2C32 26.4 32 24.2 29.6 24.2C27.2 24.2 26.8 26.2 26.8 28.2V35.8H22V20.4Z" fill="#003366"/>
</g>
<defs>
<linearGradient id="paint0_linear_14_112" x1="0" y1="24.5" x2="49" y2="24.5" gradientUnits="userSpaceOnUse">
<stop stop-color="#CC9933"/>
<stop offset="0.439" stop-color="#FFCC66"/>
<stop offset="0.6777" stop-color="#CC9933"/>
<stop offset="0.7611" stop-color="#C69333"/>
<stop offset="0.8676" stop-color="#B78433"/>
<stop offset="0.9863" stop-color="#9D6A33"/>
<stop offset="1" stop-color="#996633"/>
</linearGradient>
<clipPath id="clip0_14_112">
<rect width="49" height="49" fill="white"/>
</clipPath>
</defs>
</svg>
