<svg width="49" height="49" viewBox="0 0 49 49" fill="none" xmlns="http://www.w3.org/2000/svg">
<g clip-path="url(#clip0_14_100)">
<path d="M24.4 48.8C37.8757 48.8 48.8 37.8757 48.8 24.4C48.8 10.9243 37.8757 0 24.4 0C10.9243 0 0 10.9243 0 24.4C0 37.8757 10.9243 48.8 24.4 48.8Z" fill="url(#paint0_linear_14_100)"/>
<path d="M32.2 15.2C31.2 15.2 30.6 16 30.6 16.8C30.6 17.8 31.4 18.4 32.2 18.4C33.2 18.4 33.8 17.6 33.8 16.8C33.8 16 33 15.2 32.2 15.2Z" fill="#003366"/>
<path d="M24.6 17.3999C20.6 17.3999 17.6 20.5999 17.6 24.3999C17.6 28.3999 20.8 31.3999 24.6 31.3999C28.6 31.3999 31.6 28.1999 31.6 24.3999C31.6 20.5999 28.6 17.3999 24.6 17.3999ZM24.6 28.9999C22.2 28.9999 20 26.9999 20 24.3999C20 21.7999 22 19.7999 24.6 19.7999C27 19.7999 29.2 21.7999 29.2 24.3999C29.2 26.9999 27.2 28.9999 24.6 28.9999Z" fill="#003366"/>
<path d="M30.2 38.7999H18.8C14 38.7999 10.2 35 10.2 30.2V18.8C10.2 14 14 10.2 18.8 10.2H30.2C35 10.2 38.8 14 38.8 18.8V30.2C38.8 35 35 38.7999 30.2 38.7999ZM18.8 12.8C15.6 12.8 12.8 15.4 12.8 18.8V30.2C12.8 33.4 15.4 36.2 18.8 36.2H30.2C33.4 36.2 36.2 33.6 36.2 30.2V18.8C36.2 15.6 33.6 12.8 30.2 12.8H18.8Z" fill="#003366"/>
</g>
<defs>
<linearGradient id="paint0_linear_14_100" x1="0" y1="24.5" x2="49" y2="24.5" gradientUnits="userSpaceOnUse">
<stop stop-color="#CC9933"/>
<stop offset="0.439" stop-color="#FFCC66"/>
<stop offset="0.6777" stop-color="#CC9933"/>
<stop offset="0.7611" stop-color="#C69333"/>
<stop offset="0.8676" stop-color="#B78433"/>
<stop offset="0.9863" stop-color="#9D6A33"/>
<stop offset="1" stop-color="#996633"/>
</linearGradient>
<clipPath id="clip0_14_100">
<rect width="49" height="49" fill="white"/>
</clipPath>
</defs>
</svg>
