<svg width="50" height="50" viewBox="0 0 50 50" fill="none" xmlns="http://www.w3.org/2000/svg">
<g clip-path="url(#clip0_11_64)">
<path d="M24.8 49.6C38.4967 49.6 49.6 38.4967 49.6 24.8C49.6 11.1033 38.4967 0 24.8 0C11.1033 0 0 11.1033 0 24.8C0 38.4967 11.1033 49.6 24.8 49.6Z" fill="url(#paint0_linear_11_64)"/>
<path d="M24.8 15C28.7 15 32.5 15 36.4 15C37.5 15 38.5 15.9 38.6 17C38.6 17.4 38.6 17.7 38.6 18.1C38.6 22.7 38.6 27.4 38.6 32C38.6 33.3 37.8 34.2 36.6 34.4C36.5 34.4 36.3 34.4 36.2 34.4C28.5 34.4 20.8 34.4 13.2 34.4C11.8 34.4 10.8 33.4 10.8 32C10.8 27.4 10.8 22.9 10.8 18.3C10.8 17.9 10.8 17.4 10.8 17C10.9 15.9 11.9 15 13.2 15C17.1 15 20.9 15 24.8 15ZM13.8 16.8C13.9 16.9 13.9 16.9 14 17C16.8 19.6 19.7 22.2 22.5 24.8C23 25.3 23.6 25.7 24.2 26.2C24.6 26.5 25 26.5 25.3 26.2C25.8 25.9 26.3 25.5 26.7 25.1C29.7 22.4 32.6 19.7 35.5 17C35.6 16.9 35.6 16.9 35.7 16.8C28.4 16.8 21.1 16.8 13.8 16.8ZM28.5 26.1C28.1 26.5 27.7 26.8 27.3 27.2C25.8 28.5 23.6 28.5 22.2 27.2C21.8 26.9 21.4 26.5 21 26.2C18.6 28.4 16.2 30.6 13.8 32.8C21.1 32.8 28.4 32.8 35.7 32.8C33.3 30.5 30.9 28.3 28.5 26.1ZM12.6 18.3C12.6 22.7 12.6 27.1 12.6 31.5C15 29.2 17.4 27 19.8 24.8C17.4 22.7 15 20.5 12.6 18.3ZM36.9 31.5C36.9 27.1 36.9 22.7 36.9 18.3C34.5 20.5 32.1 22.6 29.7 24.8C32.1 27.1 34.5 29.3 36.9 31.5Z" fill="#003366"/>
</g>
<defs>
<linearGradient id="paint0_linear_11_64" x1="0" y1="24.75" x2="49.5" y2="24.75" gradientUnits="userSpaceOnUse">
<stop stop-color="#CC9933"/>
<stop offset="0.439" stop-color="#FFCC66"/>
<stop offset="0.6777" stop-color="#CC9933"/>
<stop offset="0.7611" stop-color="#C69333"/>
<stop offset="0.8676" stop-color="#B78433"/>
<stop offset="0.9863" stop-color="#9D6A33"/>
<stop offset="1" stop-color="#996633"/>
</linearGradient>
<clipPath id="clip0_11_64">
<rect width="49.5" height="49.5" fill="white"/>
</clipPath>
</defs>
</svg>
