<svg width="50" height="50" viewBox="0 0 50 50" fill="none" xmlns="http://www.w3.org/2000/svg">
<g clip-path="url(#clip0_11_55)">
<path d="M24.8 49.6C38.4967 49.6 49.6 38.4967 49.6 24.8C49.6 11.1033 38.4967 0 24.8 0C11.1033 0 0 11.1033 0 24.8C0 38.4967 11.1033 49.6 24.8 49.6Z" fill="url(#paint0_linear_11_55)"/>
<path d="M35 30.2C34.2 29.6 33.4 29.1 32.7 28.5C31.1 27.4 29.7 27.3 28.5 29.1C27.8 30.1 26.9 30.1 25.9 29.7C23.2 28.5 21.2 26.7 20 24C19.5 22.8 19.5 21.8 20.7 20.9C21.4 20.5 22 19.9 22 19C21.9 17.7 18.8 13.6 17.6 13.1C17.1 12.9 16.6 12.9 16.1 13.1C13.2 14 12 16.4 13.2 19.1C16.6 27.3 22.6 33 30.8 36.5C31.3 36.7 31.8 36.8 32.1 36.8C34 36.8 36.2 35 36.8 33.3C37.3 31.6 36 31 35 30.2Z" fill="#003366"/>
<path d="M25.7 14C31.7 14.9 34.5 17.7 35.3 23.7C35.4 24.2 35.2 25.1 36 25.1C36.8 25.1 36.6 24.3 36.6 23.8C36.7 18.2 31.7 13 25.9 12.8C25.5 12.9 24.6 12.5 24.5 13.5C24.5 14 25.2 13.9 25.7 14Z" fill="#003366"/>
<path d="M26.9 15.6C26.3 15.5 25.6 15.3 25.4 16.1C25.3 16.9 26.1 16.8 26.7 17C30.4 17.8 31.7 19.1 32.3 22.8C32.4 23.3 32.2 24.1 33.1 24C33.8 23.9 33.5 23.2 33.6 22.8C33.7 19.2 30.6 16 26.9 15.6Z" fill="#003366"/>
<path d="M27.3 18.4C26.9 18.4 26.5 18.5 26.4 18.9C26.2 19.5 26.6 19.7 27.1 19.7C28.6 19.9 29.4 20.8 29.6 22.3C29.6 22.7 29.9 23 30.3 23C30.9 22.9 30.9 22.5 30.9 22C30.8 20.3 28.9 18.4 27.3 18.4Z" fill="#003366"/>
</g>
<defs>
<linearGradient id="paint0_linear_11_55" x1="0" y1="24.75" x2="49.5" y2="24.75" gradientUnits="userSpaceOnUse">
<stop stop-color="#CC9933"/>
<stop offset="0.439" stop-color="#FFCC66"/>
<stop offset="0.6777" stop-color="#CC9933"/>
<stop offset="0.7611" stop-color="#C69333"/>
<stop offset="0.8676" stop-color="#B78433"/>
<stop offset="0.9863" stop-color="#9D6A33"/>
<stop offset="1" stop-color="#996633"/>
</linearGradient>
<clipPath id="clip0_11_55">
<rect width="49.5" height="49.5" fill="white"/>
</clipPath>
</defs>
</svg>
