<svg width="356" height="28" viewBox="0 0 356 28" fill="none" xmlns="http://www.w3.org/2000/svg">
<g clip-path="url(#clip0_14_17)">
<path d="M23.5508 26.902C23.5508 27.1765 23.2769 27.1765 23.0031 27.1765H21.9077C21.6338 27.1765 21.36 26.902 21.36 26.6274L18.6215 20.5882H4.92923L2.19077 26.902C2.19077 27.1765 1.91692 27.451 1.64308 27.451H0.547692C0.273846 27.451 0 27.1765 0 26.902V26.6274L10.4062 0.823525C10.4062 0.549015 10.68 0.274506 10.9538 0.274506H12.0492C12.3231 0.274506 12.5969 0.549015 12.5969 0.823525L23.5508 26.902ZM17.8 18.3922L11.7754 3.56862L5.75077 18.3922H17.8Z" fill="#FFCC66"/>
<path d="M27.9323 27.1765C27.9323 27.1765 27.6584 26.902 27.6584 26.6274V1.09803C27.6584 0.823521 27.9323 0.549011 28.2061 0.549011H38.3384C39.7077 0.549011 41.0769 0.823521 42.1723 1.37254C43.2677 1.92156 44.0892 2.74509 44.6369 3.84313C45.1846 4.94117 45.4584 6.03921 45.4584 7.41176C45.4584 8.23529 45.1846 9.05882 44.9108 9.88234C44.6369 10.7059 44.0892 11.2549 43.5415 12.0784C42.9938 12.6274 42.1723 13.1765 41.6246 13.451C42.72 13.7255 43.5415 14 44.3631 14.8235C45.1846 15.3725 45.7323 16.1961 46.28 17.2941C46.8277 18.3922 47.1015 19.2157 47.1015 20.3137C47.1015 21.6863 46.8277 23.0588 46.0061 24.1569C45.4584 25.2549 44.3631 26.0784 43.2677 26.6274C42.1723 27.1765 41.0769 27.451 39.7077 27.451H28.48C28.2061 27.451 28.2061 27.451 27.9323 27.1765ZM40.8031 11.8039C41.6246 11.2549 42.1723 10.7059 42.72 9.88234C43.2677 9.05882 43.5415 8.23529 43.5415 7.41176C43.5415 6.58823 43.2677 5.7647 42.9938 4.94117C42.4461 4.11764 41.8984 3.56862 41.3508 3.0196C40.5292 2.47058 39.7077 2.47058 38.6123 2.47058H30.3969V12.3529H38.6123C39.16 12.3529 40.2554 12.3529 40.8031 11.8039ZM42.1723 24.7059C42.9938 24.1569 43.5415 23.6078 44.0892 22.7843C44.6369 21.9608 44.9108 20.8627 44.9108 20.0392C44.9108 18.9412 44.6369 18.1176 44.0892 17.2941C43.5415 16.4706 42.9938 15.6471 42.1723 15.3725C41.3508 14.8235 40.2554 14.549 39.16 14.549H30.1231V25.8039H39.4338C40.5292 25.5294 41.3508 25.2549 42.1723 24.7059Z" fill="#FFCC66"/>
<path d="M57.5077 26.0784C55.3169 24.9804 53.6739 23.0588 52.5785 21.1373C51.4831 18.9412 50.6616 16.7451 50.6616 14C50.6616 11.5294 51.2093 9.05882 52.5785 6.86275C53.6739 4.66667 55.5908 3.01961 57.5077 1.92157C59.6985 0.823529 61.8893 0 64.3539 0C66.8185 0 69.2831 0.54902 71.2 1.92157C73.3908 3.01961 75.0339 4.94118 76.1292 6.86275C77.2246 9.05882 78.0462 11.2549 78.0462 14C78.0462 16.4706 77.4985 18.9412 76.1292 21.1373C75.0339 23.3333 73.1169 24.9804 71.2 26.0784C69.0093 27.1765 66.8185 28 64.3539 28C61.8893 27.7255 59.6985 27.1765 57.5077 26.0784ZM70.1046 24.1569C71.7477 23.0588 73.3908 21.6863 74.2123 20.0392C75.3077 18.3922 75.8554 16.1961 75.8554 14C75.8554 11.8039 75.3077 9.88235 74.2123 7.96078C73.1169 6.03922 71.7477 4.66667 70.1046 3.84314C68.4616 2.7451 66.5446 2.19608 64.3539 2.19608C62.1631 2.19608 60.52 2.7451 58.6031 3.84314C56.96 4.94118 55.5908 6.31373 54.4954 7.96078C53.4 9.88235 52.8523 11.8039 52.8523 14C52.8523 16.1961 53.4 18.1176 54.4954 20.0392C55.5908 21.6863 56.96 23.3333 58.6031 24.1569C60.2462 25.2549 62.1631 25.8039 64.3539 25.8039C66.5446 25.5294 68.4616 24.9804 70.1046 24.1569Z" fill="#FFCC66"/>
<path d="M102.692 15.3725C102.692 15.3725 102.966 15.098 103.24 15.098H104.335C104.609 15.098 104.883 15.3725 104.883 15.6471V24.1569C104.883 24.4314 104.883 24.7059 104.609 24.9804C103.514 25.8039 102.145 26.6275 100.502 27.1765C98.8585 27.7255 97.4893 28 95.8462 28C93.3816 28 90.9169 27.451 89 26.0784C86.8093 24.7059 85.1662 23.0588 84.0708 21.1373C82.7016 18.9412 82.1539 16.4706 82.1539 14C82.1539 11.5294 82.7016 9.05882 84.0708 7.13725C85.1662 4.94118 87.0831 3.29412 89 2.19608C90.9169 0.54902 93.3816 0 95.8462 0C97.4893 0 98.8585 0.27451 100.502 0.823529C101.871 1.37255 103.24 2.19608 104.609 3.01961C104.883 3.01961 104.883 3.29412 104.883 3.29412C104.883 3.29412 104.883 3.56863 104.609 3.56863L104.062 4.39216C104.062 4.66667 103.788 4.66667 103.788 4.66667C103.788 4.66667 103.514 4.66667 103.514 4.39216C102.418 3.56863 101.323 3.01961 100.228 2.47059C99.1323 1.92157 97.7631 1.64706 96.3939 1.64706C94.2031 1.64706 92.2862 2.19608 90.6431 3.29412C89 4.39216 87.3569 5.76471 86.5354 7.41177C85.44 9.33333 84.8923 11.2549 84.8923 13.451C84.8923 15.6471 85.44 17.5686 86.5354 19.4902C87.6308 21.4118 89 22.7843 90.6431 23.8824C92.2862 24.9804 94.2031 25.5294 96.3939 25.5294C97.4893 25.5294 98.5846 25.2549 99.9539 24.9804C101.323 24.7059 102.145 24.1569 103.24 23.6078V15.9216C102.692 15.6471 102.692 15.6471 102.692 15.3725Z" fill="#FFCC66"/>
<path d="M131.446 26.902C131.446 27.1765 131.172 27.1765 130.898 27.1765H129.803C129.529 27.1765 129.255 26.902 129.255 26.6275L126.791 20.3137H113.098L110.634 26.6275C110.634 26.902 110.36 27.1765 110.086 27.1765H108.991C108.717 27.1765 108.443 26.902 108.443 26.6275V26.3529L118.849 0.54902C118.849 0.27451 119.123 0 119.397 0H120.492C120.766 0 121.04 0.27451 121.04 0.54902L131.446 26.902ZM125.695 18.3922L119.671 3.56863L113.646 18.3922H125.695Z" fill="#FFCC66"/>
<path d="M135.828 27.1765C135.828 27.1765 135.554 26.902 135.554 26.6274V1.09803C135.554 0.823521 135.828 0.549011 136.102 0.549011H144.591C147.055 0.549011 149.52 1.09803 151.437 2.47058C153.628 3.56862 155.271 5.21568 156.366 7.41176C157.462 9.60783 158.283 11.8039 158.283 14.2745C158.283 16.7451 157.735 18.9412 156.366 21.1372C155.271 23.0588 153.354 24.7059 151.437 26.0784C149.246 27.1765 147.055 28 144.591 28H136.102C136.102 27.451 136.102 27.451 135.828 27.1765ZM150.615 23.6078C152.258 22.5098 153.628 21.1372 154.723 19.4902C155.818 17.8431 156.366 15.9216 156.366 13.7255C156.366 11.5294 155.818 9.60783 154.723 7.96078C153.628 6.31372 152.258 4.94117 150.615 3.84313C148.698 3.29411 146.782 2.74509 144.865 2.74509H138.018V25.2549H144.865C147.055 25.2549 148.972 24.7059 150.615 23.6078Z" fill="#FFCC66"/>
<path d="M169.237 26.0784C167.046 24.7059 165.403 23.0588 164.308 20.8627C163.212 18.6667 162.391 16.4706 162.391 13.7255C162.391 11.2549 162.938 8.78431 164.308 6.58824C165.403 4.39216 167.32 2.7451 169.237 1.64706C171.428 0.823529 173.618 0 176.083 0C178.548 0 181.012 0.54902 182.929 1.92157C185.12 3.01961 186.763 4.94118 187.858 6.86275C188.954 9.05882 189.775 11.2549 189.775 14C189.775 16.4706 189.228 18.9412 187.858 21.1373C186.763 23.3333 184.846 24.9804 182.929 26.0784C180.738 27.1765 178.548 28 176.083 28C173.618 27.7255 171.428 27.1765 169.237 26.0784ZM181.834 24.1569C183.477 23.0588 185.12 21.6863 185.942 20.0392C187.037 18.3922 187.585 16.1961 187.585 14C187.585 11.8039 187.037 9.88235 185.942 7.96078C184.846 6.03922 183.477 4.66667 181.834 3.84314C180.191 2.7451 178.274 2.19608 176.083 2.19608C173.892 2.19608 172.249 2.7451 170.332 3.84314C168.689 4.94118 167.32 6.31373 166.225 7.96078C165.129 9.88235 164.582 11.8039 164.582 14C164.582 16.1961 165.129 18.1176 166.225 20.0392C167.32 21.6863 168.689 23.3333 170.332 24.1569C171.975 25.2549 173.892 25.8039 176.083 25.8039C178.274 25.5294 180.191 24.9804 181.834 24.1569Z" fill="#FFCC66"/>
<path d="M197.717 26.6274C195.8 25.8039 194.431 24.9804 193.335 23.6078L193.062 23.3333C193.062 23.0588 193.062 23.0588 193.335 23.0588L194.157 21.9608L194.431 21.6863C194.705 21.6863 194.705 21.6863 194.705 21.9608C196.074 23.0588 197.169 24.1569 198.812 24.7059C200.455 25.2549 201.825 25.5294 203.468 25.5294C204.837 25.5294 205.932 25.2549 207.028 24.9804C208.123 24.7059 208.945 23.8823 209.492 23.0588C210.04 22.2353 210.314 21.1372 210.314 20.0392C210.314 18.9412 210.04 17.8431 209.218 17.2941C208.397 16.4706 207.575 15.9216 206.754 15.6471C205.932 15.3725 204.563 14.8235 202.646 14.549C201.003 14 199.36 13.7255 198.265 13.1765C197.169 12.6274 196.074 11.8039 195.252 10.9804C194.431 10.1569 194.157 8.78431 194.157 7.41176C194.157 6.03921 194.431 4.66666 195.252 3.84313C196.074 2.74509 197.169 1.92156 198.538 1.37254C199.908 0.823521 201.551 0.549011 203.194 0.549011C204.837 0.549011 206.206 0.823521 207.575 1.37254C208.945 1.92156 210.314 2.47058 211.409 3.56862C211.683 3.56862 211.683 3.84313 211.683 3.84313C211.683 3.84313 211.683 4.11764 211.409 4.11764L210.862 4.94117C210.862 4.66666 210.862 4.94117 210.588 4.94117C210.588 4.94117 210.314 4.94117 210.314 4.66666C209.492 3.84313 208.397 3.29411 207.028 3.0196C205.932 2.47058 204.563 2.47058 203.468 2.47058C202.098 2.47058 201.003 2.74509 199.908 3.0196C198.812 3.29411 197.991 3.84313 197.443 4.66666C196.895 5.49019 196.348 6.31372 196.348 7.41176C196.348 8.5098 196.622 9.33332 197.169 9.88234C197.717 10.4314 198.538 10.9804 199.634 11.2549C200.455 11.5294 201.825 12.0784 203.742 12.3529C205.658 12.902 207.302 13.451 208.671 14C209.766 14.549 210.862 15.3725 211.683 16.4706C212.505 17.2941 213.052 18.6667 213.052 20.3137C213.052 21.9608 212.505 23.3333 211.683 24.4314C210.862 25.5294 209.766 26.3529 208.397 27.1765C207.028 27.7255 205.385 28 203.742 28C201.551 27.7255 199.634 27.451 197.717 26.6274Z" fill="#FFCC66"/>
<path d="M246.462 27.451H228.388C227.84 27.451 227.566 27.1765 227.566 26.6274V1.37254C227.566 0.823521 227.84 0.549011 228.388 0.549011H246.188C246.735 0.549011 247.009 0.823521 247.009 1.37254V5.49019C247.009 6.03921 246.735 6.31372 246.188 6.31372H233.865V10.9804H243.449C243.997 10.9804 244.271 11.2549 244.271 11.8039V15.6471C244.271 16.1961 243.997 16.4706 243.449 16.4706H233.865V21.9608H246.462C247.009 21.9608 247.283 22.2353 247.283 22.7843V26.902C247.283 27.1765 247.009 27.451 246.462 27.451Z" fill="#FFCC66"/>
<path d="M251.665 26.6274V1.37254C251.665 0.823521 251.938 0.549011 252.486 0.549011H261.523C263.988 0.549011 266.452 1.09803 268.643 2.19607C270.834 3.29411 272.477 4.94117 273.846 7.13725C275.215 9.05882 275.763 11.5294 275.763 14C275.763 16.4706 275.215 18.6667 273.846 20.8627C272.477 22.7843 270.834 24.4314 268.643 25.8039C266.452 26.902 264.262 27.451 261.523 27.451H252.212C251.938 27.451 251.665 27.1765 251.665 26.6274ZM265.631 20.5882C266.726 20.0392 267.548 18.9412 268.369 17.8431C268.917 16.7451 269.465 15.3725 269.465 14C269.465 12.6274 269.191 11.2549 268.369 10.1569C267.822 9.05882 266.726 8.23529 265.631 7.41176C264.535 6.86274 263.166 6.58823 261.797 6.58823H257.689V21.6863H261.797C263.166 21.4118 264.535 21.1372 265.631 20.5882Z" fill="#FFCC66"/>
<path d="M284.526 26.6274C282.883 25.5294 281.514 24.4314 280.692 22.5098C279.871 20.8627 279.323 18.9412 279.323 16.7451V1.37254C279.323 0.823521 279.597 0.549011 280.145 0.549011H284.8C285.348 0.549011 285.622 0.823521 285.622 1.37254V15.9216C285.622 17.2941 285.895 18.3921 286.169 19.2157C286.717 20.0392 287.265 20.8627 288.086 21.4118C288.908 21.9608 289.729 22.2353 290.825 22.2353C291.92 22.2353 292.742 21.9608 293.563 21.4118C294.385 20.8627 294.932 20.0392 295.48 19.2157C296.028 18.3921 296.028 17.2941 296.028 15.9216V1.37254C296.028 0.823521 296.302 0.549011 296.849 0.549011H301.505C302.052 0.549011 302.326 0.823521 302.326 1.37254V16.7451C302.326 18.9412 301.779 20.8627 300.957 22.5098C300.135 24.1569 298.766 25.5294 297.123 26.6274C295.48 27.7255 293.289 28 290.825 28C288.36 28 286.443 27.451 284.526 26.6274Z" fill="#FFCC66"/>
<path d="M313.006 26.0784C310.815 24.7059 309.172 23.0588 308.077 21.1373C306.982 18.9412 306.16 16.7451 306.16 14C306.16 11.5294 306.708 9.05882 308.077 6.86275C309.172 4.66667 311.089 3.01961 313.006 1.92157C315.197 0.823529 317.388 0 320.126 0C321.769 0 323.138 0.27451 324.782 0.823529C326.151 1.37255 327.52 1.92157 328.615 3.01961C328.889 3.29412 328.889 3.29412 328.889 3.56863C328.889 3.84314 328.889 3.84314 328.615 4.11765L325.877 7.68627C325.603 7.96078 325.603 7.96078 325.329 7.96078C325.055 7.96078 325.055 7.96078 324.782 7.68627C323.96 7.13726 323.412 6.86275 322.591 6.58824C321.769 6.31373 320.948 6.03922 320.126 6.03922C318.757 6.03922 317.388 6.31373 316.292 7.13725C315.197 7.96078 314.102 8.78431 313.554 9.88235C312.732 10.9804 312.185 12.3529 312.185 14C312.185 15.3725 312.458 16.7451 313.28 18.1176C314.102 19.2157 314.923 20.3137 316.018 21.1373C317.114 21.9608 318.483 22.2353 319.852 22.2353C320.674 22.2353 321.769 22.2353 322.317 21.9608C323.138 21.6863 323.96 21.4118 324.782 20.5882C325.055 20.5882 325.055 20.3137 325.329 20.3137C325.603 20.3137 325.877 20.3137 325.877 20.5882L328.615 24.1569C328.889 24.4314 328.889 24.4314 328.889 24.7059C328.889 24.9804 328.889 24.9804 328.615 25.2549C327.52 26.0784 326.151 26.902 324.782 27.451C323.412 28 321.769 28.2745 320.126 28.2745C317.388 28 314.923 27.1765 313.006 26.0784Z" fill="#FFCC66"/>
<path d="M356 26.902C356 27.1765 356 27.1765 355.726 27.1765C355.452 27.1765 355.452 27.451 355.178 27.451H350.523C349.975 27.451 349.701 27.1765 349.701 26.902L348.332 23.0588H338.2L336.831 26.6274C336.831 27.1765 336.283 27.1765 336.009 27.1765H331.08C330.806 27.1765 330.806 27.1765 330.532 26.902C330.258 26.6274 330.258 26.6274 330.258 26.6274V26.3529L340.117 0.823525C340.391 0.549015 340.665 0.274506 340.938 0.274506H345.046C345.594 0.274506 345.868 0.549015 345.868 0.823525L355.726 26.3529C356 26.6274 356 26.6274 356 26.902ZM346.689 17.5686L343.677 9.05882L343.403 7.96078L343.129 9.05882L340.117 17.5686H346.689Z" fill="#FFCC66"/>
</g>
<defs>
<clipPath id="clip0_14_17">
<rect width="356" height="28" fill="white"/>
</clipPath>
</defs>
</svg>
