<svg width="50" height="50" viewBox="0 0 50 50" fill="none" xmlns="http://www.w3.org/2000/svg">
<g clip-path="url(#clip0_11_54)">
<path d="M24.8 49.6C38.4967 49.6 49.6 38.4967 49.6 24.8C49.6 11.1033 38.4967 0 24.8 0C11.1033 0 0 11.1033 0 24.8C0 38.4967 11.1033 49.6 24.8 49.6Z" fill="url(#paint0_linear_11_54)"/>
<path d="M11.7 37.8L13.6 30.8C12.5 28.9 12 26.7 12 24.6C12 17.5 17.8 11.7 24.9 11.7C32 11.7 37.8 17.5 37.8 24.6C37.8 31.7 32 37.5 24.9 37.5C22.8 37.5 20.6 37 18.8 35.9L11.7 37.8ZM19.1 33.3L19.5 33.6C21.1 34.6 23 35.1 24.8 35.1C30.6 35.1 35.3 30.4 35.3 24.6C35.3 18.8 30.6 14.1 24.8 14.1C19 14.1 14.3 18.8 14.3 24.6C14.3 26.5 14.8 28.4 15.8 30L16.1 30.4L15.1 34.3L19.1 33.3Z" fill="#003366"/>
<path fill-rule="evenodd" clip-rule="evenodd" d="M29.7 26.4C29.2 26.1 28.5 25.7 27.9 26C27.4 26.2 27.1 26.9 26.8 27.3C26.6 27.5 26.4 27.5 26.2 27.4C24.4 26.7 23 25.5 22 23.8C21.8 23.5 21.9 23.3 22.1 23.1C22.4 22.7 22.8 22.3 22.9 21.9C23 21.4 22.8 20.9 22.6 20.4C22.3 19.9 22.1 19.1 21.5 18.8C21 18.5 20.3 18.7 19.9 19C19.1 19.6 18.8 20.6 18.8 21.6C18.8 21.9 18.8 22.2 18.9 22.4C19.1 23 19.4 23.6 19.7 24.2C20 24.6 20.2 25 20.5 25.4C21.5 26.7 22.7 27.8 24.1 28.7C24.8 29.1 25.5 29.5 26.3 29.8C27.2 30.1 27.9 30.4 28.9 30.2C29.9 30 30.9 29.4 31.2 28.5C31.3 28.2 31.4 27.9 31.3 27.6C31 27 30.2 26.7 29.7 26.4Z" fill="#003366"/>
</g>
<defs>
<linearGradient id="paint0_linear_11_54" x1="7.2491" y1="7.2491" x2="42.2509" y2="42.2509" gradientUnits="userSpaceOnUse">
<stop stop-color="#CC9933"/>
<stop offset="0.439" stop-color="#FFCC66"/>
<stop offset="0.6777" stop-color="#CC9933"/>
<stop offset="0.7611" stop-color="#C69333"/>
<stop offset="0.8676" stop-color="#B78433"/>
<stop offset="0.9863" stop-color="#9D6A33"/>
<stop offset="1" stop-color="#996633"/>
</linearGradient>
<clipPath id="clip0_11_54">
<rect width="49.5" height="49.5" fill="white"/>
</clipPath>
</defs>
</svg>
